<?xml version="1.0" encoding="UTF-8" standalone="no"?>
<!-- Created with Inkscape (http://www.inkscape.org/) -->

<svg
   version="1.1"
   id="svg2"
   width="1122.52"
   height="793.70667"
   viewBox="0 0 1122.52 793.70667"
   sodipodi:docname="3249-logo-black.ai"
   xmlns:inkscape="http://www.inkscape.org/namespaces/inkscape"
   xmlns:sodipodi="http://sodipodi.sourceforge.net/DTD/sodipodi-0.dtd"
   xmlns="http://www.w3.org/2000/svg"
   xmlns:svg="http://www.w3.org/2000/svg">
  <defs
     id="defs6">
    <clipPath
       clipPathUnits="userSpaceOnUse"
       id="clipPath20">
      <path
         d="M 0,595.28 H 841.89 V 0 H 0 Z"
         id="path18" />
    </clipPath>
  </defs>
  <sodipodi:namedview
     id="namedview4"
     pagecolor="#ffffff"
     bordercolor="#000000"
     borderopacity="0.25"
     inkscape:showpageshadow="2"
     inkscape:pageopacity="0.0"
     inkscape:pagecheckerboard="0"
     inkscape:deskcolor="#d1d1d1" />
  <g
     id="g8"
     inkscape:groupmode="layer"
     inkscape:label="3249-logo-black"
     transform="matrix(1.3333333,0,0,-1.3333333,0,793.70667)">
    <g
       id="g10"
       transform="translate(332.3892,355.3643)">
      <path
         d="M 0,0 H 20.084 L 52.923,-35.569 V 0 H 77.172 V -78.895 H 56.968 L 24.233,-43.338 V -78.895 H 0 Z"
         style="fill:#1c1c1b;fill-opacity:1;fill-rule:nonzero;stroke:none"
         id="path12" />
    </g>
    <g
       id="g14">
      <g
         id="g16"
         clip-path="url(#clipPath20)">
        <g
           id="g22"
           transform="translate(455.042,355.3643)">
          <path
             d="m 0,0 h 44.726 c 20.955,0 30.63,-7.517 30.63,-20.66 0,-8.279 -5.994,-15.169 -15.116,-17.424 v -0.209 c 10.757,-1.931 17.443,-10.035 17.443,-19.41 0,-10.127 -2.692,-21.192 -29.643,-21.192 l -48.04,0 z M 26.454,-31.311 H 37.21 c 6.732,0 11.687,1.776 11.687,8.452 0,6.474 -5.32,8.453 -11.687,8.453 H 26.454 Z m 0,-33.185 h 12.225 c 6.491,0 11.074,2.512 11.074,8.777 0,7.088 -3.605,8.758 -11.074,8.758 H 26.454 Z"
             style="fill:#1c1c1b;fill-opacity:1;fill-rule:nonzero;stroke:none"
             id="path24" />
        </g>
        <g
           id="g26"
           transform="translate(448.4961,362.0771)">
          <path
             d="M 0,0 H -31.042 V 34.553 Z"
             style="fill:#1c1c1b;fill-opacity:1;fill-rule:nonzero;stroke:none"
             id="path28" />
        </g>
        <g
           id="g30"
           transform="translate(417.4521,355.3643)">
          <path
             d="m 0,0 v -0.209 l 29.915,-33.33 H 0 V -78.895 H 30.232 V 0 Z"
             style="fill:#1c1c1b;fill-opacity:1;fill-rule:nonzero;stroke:none"
             id="path32" />
        </g>
      </g>
    </g>
  </g>
</svg>
