<svg width="884" height="258" viewBox="0 0 884 258" fill="none" xmlns="http://www.w3.org/2000/svg">
<g clip-path="url(#clip0_7_2)">
<mask id="mask0_7_2" style="mask-type:luminance" maskUnits="userSpaceOnUse" x="-1" y="-9" width="885" height="267">
<path d="M-0.00274658 258H884V-8.59427H-0.00274658V258Z" fill="white"/>
</mask>
<g mask="url(#mask0_7_2)">
<path d="M0.935512 177.324C0.935512 164.511 0.691224 153.761 -6.10352e-05 144.171H24.2417L25.38 160.633H26.0557C31.5392 151.931 41.607 141.639 60.3496 141.639C74.981 141.639 86.4054 149.904 91.2028 162.234H91.6706C95.574 156.053 100.137 151.5 105.382 148.288C111.551 143.947 118.646 141.639 127.804 141.639C146.298 141.639 165.025 154.219 165.025 189.903V255.496H137.602V193.999C137.602 175.489 131.209 164.511 117.742 164.511C108.121 164.511 101.021 171.377 98.0688 179.382C97.3827 182.121 96.6915 185.547 96.6915 188.733V255.496H69.2532V191.031C69.2532 175.489 63.0888 164.511 50.0635 164.511C39.5435 164.511 32.4695 172.739 29.9539 180.5C28.8156 183.265 28.3322 186.456 28.3322 189.658V255.496H0.935512V177.324Z" fill="black"/>
<path d="M244.456 201.103C224.565 200.635 205.604 204.965 205.604 221.894C205.604 232.852 212.694 237.899 221.608 237.899C232.788 237.899 241.036 230.585 243.526 222.586C244.217 220.533 244.456 218.235 244.456 216.416V201.103ZM271.879 228.756C271.879 238.809 272.342 248.602 273.496 255.494H248.116L246.291 243.144H245.579C238.734 251.835 227.081 258 212.694 258C190.282 258 177.719 241.803 177.719 224.852C177.719 196.736 202.616 182.577 243.765 182.8V180.971C243.765 173.652 240.787 161.536 221.15 161.536C210.168 161.536 198.723 164.982 191.196 169.78L185.702 151.498C193.93 146.451 208.343 141.638 225.942 141.638C261.603 141.638 271.879 164.29 271.879 188.513V228.756Z" fill="black"/>
<path d="M291.329 177.324C291.329 164.511 291.075 153.761 290.409 144.171H315.072L316.449 160.856H317.125C321.922 152.186 334.054 141.639 352.552 141.639C372.002 141.639 392.111 154.219 392.111 189.424V255.496H363.987V192.637C363.987 176.632 358.041 164.511 342.734 164.511C331.533 164.511 323.778 172.5 320.789 180.967C319.895 183.494 319.651 186.929 319.651 190.095V255.496H291.329V177.324Z" fill="black"/>
<path d="M485.882 190.563C485.882 188.291 485.648 185.547 485.201 183.259C482.68 172.287 473.776 163.377 460.969 163.377C442.913 163.377 432.861 179.387 432.861 200.184C432.861 220.529 442.913 235.406 460.751 235.406C472.165 235.406 482.233 227.624 484.967 215.508C485.648 212.987 485.882 210.221 485.882 207.253V190.563ZM513.99 99.442V224.173C513.99 235.598 514.458 247.954 514.905 255.485H489.764L488.641 237.901H488.174C481.547 250.225 468.028 258.001 451.821 258.001C425.314 258.001 404.279 235.406 404.279 201.104C404.055 163.829 427.377 141.639 454.119 141.639C469.421 141.639 480.403 148.048 485.424 156.308H485.882V99.442H513.99Z" fill="black"/>
<path d="M533.867 144.169H562.251V255.484H533.867V144.169Z" fill="black"/>
<path d="M582.102 180.065C582.102 164.98 581.874 154.221 581.182 144.178H605.648L606.552 165.417H607.482C612.961 149.646 625.996 144.178 637.883 144.178C640.622 144.178 642.223 143.705 644.51 144.178V168.874C642.223 168.406 639.713 167.948 636.267 167.948C622.795 167.948 613.652 176.629 611.147 189.198C610.689 191.708 610.237 194.702 610.237 197.915V255.488H582.102V180.065Z" fill="black"/>
<path d="M657.539 144.169H685.866V255.484H657.539V144.169Z" fill="black"/>
<path fill-rule="evenodd" clip-rule="evenodd" d="M860.769 26.574C846.782 10.6422 831.938 17.8362 820.087 23.7099C815.124 26.1633 797.103 38.1603 779.244 46.5238C766.521 52.4859 748.256 50.6822 738.24 38.311C737.632 37.5625 721.442 17.9453 719.726 15.5283C709.212 2.34099 682.615 -8.59556 650.837 9.59218C633.81 19.4475 593.684 42.4746 578.683 51.0409C569.567 55.6931 548.402 57.7255 536.447 41.5753C536.25 41.3103 520.543 21.7087 519.914 20.955C519.451 20.4248 509.305 5.37661 486.691 4.91399C483.364 4.83082 466.752 4.73206 450.52 13.9481C428.997 26.2621 378.902 54.903 378.902 54.903C378.866 54.903 378.866 54.929 378.866 54.929C358.273 66.718 342.212 75.8716 342.212 75.8716L361.173 99.1794C370.051 110.184 390.041 118.713 407.39 108.754C407.39 108.754 471.477 71.6405 471.701 71.5365C499.425 56.322 520.818 56.322 534.992 61.9878C547.742 67.3573 558.823 80.7681 558.823 80.7681C558.823 80.7681 573.319 98.7323 575.866 101.872C584.11 112.018 597.743 108.037 597.743 108.037C597.743 108.037 602.78 107.455 610.431 102.932C610.431 102.932 672.49 66.9467 672.527 66.9363C692.246 55.3708 710.334 53.2136 719.56 54.0557C748.495 56.6911 757.492 76.906 770.05 91.003C777.436 99.3145 784.094 104.013 794.286 103.774C800.997 103.624 808.559 99.5744 809.677 98.8467L884.003 55.9374C884.003 55.9374 876.388 44.4602 860.769 26.574Z" fill="black"/>
</g>
</g>
<defs>
<clipPath id="clip0_7_2">
<rect width="884" height="258" fill="white"/>
</clipPath>
</defs>
</svg>
