<?xml version="1.0" encoding="UTF-8" standalone="no"?>
<!-- Created with Inkscape (http://www.inkscape.org/) -->

<svg
   version="1.1"
   id="svg2"
   width="258.66666"
   height="258.66666"
   viewBox="0 0 258.66666 258.66666"
   sodipodi:docname="Tandy_Shares.eps"
   xmlns:inkscape="http://www.inkscape.org/namespaces/inkscape"
   xmlns:sodipodi="http://sodipodi.sourceforge.net/DTD/sodipodi-0.dtd"
   xmlns="http://www.w3.org/2000/svg"
   xmlns:svg="http://www.w3.org/2000/svg">
  <defs
     id="defs6" />
  <sodipodi:namedview
     id="namedview4"
     pagecolor="#ffffff"
     bordercolor="#000000"
     borderopacity="0.25"
     inkscape:showpageshadow="2"
     inkscape:pageopacity="0.0"
     inkscape:pagecheckerboard="0"
     inkscape:deskcolor="#d1d1d1" />
  <g
     id="g8"
     inkscape:groupmode="layer"
     inkscape:label="ink_ext_XXXXXX"
     transform="matrix(1.3333333,0,0,-1.3333333,0,258.66667)">
    <g
       id="g10"
       transform="scale(0.1)">
      <path
         d="M 2.59766,1933.23 H 1930.16 V 5.66797 H 2.59766 V 1933.23"
         style="fill:#ffffff;fill-opacity:1;fill-rule:evenodd;stroke:none"
         id="path12" />
      <path
         d="M 1291.41,1343.18 966.379,1131.74 641.344,1343.18 v -82.05 l 325.035,-208.28 325.031,214.59 z m -448.105,154.62 72.582,-47.33 97.823,59.96 41.03,-25.25 66.26,37.87 v -66.27 l -66.26,-47.34 -41.03,34.72 -94.671,-59.96 -75.734,44.18 z m 53.648,88.36 v -56.8 l 44.18,28.4 z M 1199.89,1450.47 969.531,1299 736.016,1450.47 v -85.2 l 230.363,-151.48 233.511,151.48 z M 1398.71,1245.35 969.531,967.652 540.363,1248.5 v -97.82 L 969.531,872.977 1398.71,1153.84 v 91.51"
         style="fill:#231f20;fill-opacity:1;fill-rule:evenodd;stroke:none"
         id="path14" />
      <path
         d="M 221.637,582.656 H 328.93 v 160.942 h 78.894 v 53.644 H 139.59 v -53.644 h 82.047 V 582.656"
         style="fill:#231f20;fill-opacity:1;fill-rule:evenodd;stroke:none"
         id="path16" />
      <path
         d="m 521.426,664.703 41.027,75.738 37.863,-75.738 z m -145.16,-82.047 h 100.98 l 18.934,37.864 h 129.386 l 18.93,-37.864 H 758.102 L 631.875,797.242 H 502.496 L 376.266,582.656"
         style="fill:#231f20;fill-opacity:1;fill-rule:evenodd;stroke:none"
         id="path18" />
      <path
         d="m 770.723,582.656 h 91.515 v 151.473 l 88.364,-151.473 h 151.468 v 214.586 h -91.51 V 655.238 h -3.16 L 925.352,797.242 H 770.723 V 582.656"
         style="fill:#231f20;fill-opacity:1;fill-rule:evenodd;stroke:none"
         id="path20" />
      <path
         d="m 1253.54,749.906 h 28.41 c 47.33,0 75.73,-18.933 75.73,-59.957 0,-41.023 -28.4,-56.797 -75.73,-56.797 h -28.41 z m -104.13,-167.25 h 151.47 c 75.74,0 104.14,9.469 132.54,28.399 22.09,15.781 34.71,47.336 34.71,78.894 0,31.555 -12.62,56.801 -31.56,72.582 -34.71,28.399 -82.04,34.711 -154.62,34.711 H 1149.41 V 582.656"
         style="fill:#231f20;fill-opacity:1;fill-rule:evenodd;stroke:none"
         id="path22" />
      <path
         d="m 1565.96,582.656 h 104.14 v 66.27 l 123.06,148.316 h -110.44 l -56.81,-88.359 -50.48,88.359 h -132.54 l 123.07,-148.316 v -66.27"
         style="fill:#231f20;fill-opacity:1;fill-rule:evenodd;stroke:none"
         id="path24" />
      <path
         d="m 218.48,437.492 c 0,-22.09 9.465,-41.019 53.649,-41.019 25.246,0 56.801,6.308 56.801,37.867 0,22.086 -15.778,28.398 -37.867,31.558 l -12.622,3.153 c -12.625,3.156 -25.25,6.312 -25.25,12.625 0,6.308 6.313,12.621 22.094,12.621 9.469,0 18.934,-3.156 18.934,-12.621 h 34.711 c -3.157,22.09 -12.621,34.711 -56.801,34.711 -25.246,0 -50.492,-9.469 -50.492,-37.871 0,-22.09 18.933,-28.395 37.867,-31.555 l 15.781,-3.156 c 12.625,-3.157 22.09,-6.313 22.09,-12.621 0,-6.313 -3.156,-12.625 -22.09,-12.625 -15.781,0 -22.094,3.156 -22.094,18.933 z m 261.922,-37.867 h 34.719 v 44.18 h 53.641 v -44.18 h 34.715 v 113.609 h -34.715 v -44.183 h -53.641 v 44.183 h -34.719 z m 369.215,44.18 h -47.336 l 25.246,47.336 z m -100.98,-44.18 h 34.711 l 9.468,22.09 h 66.266 l 9.469,-22.09 h 37.875 l -59.965,113.609 h -37.863 z m 302.943,0 h 34.72 v 44.18 h 22.09 c 12.61,0 18.93,-3.157 18.93,-9.465 3.15,-6.313 3.15,-25.246 6.31,-34.715 h 34.71 c -3.16,12.625 -3.16,34.715 -9.46,44.18 -3.16,9.468 -12.63,9.468 -22.09,12.621 v 0 c 15.77,3.16 28.39,12.625 28.39,25.25 0,22.09 -15.77,31.558 -44.18,31.558 h -69.42 z m 34.72,91.516 h 22.09 c 15.77,0 22.08,-3.157 22.08,-12.625 0,-9.465 -3.15,-12.618 -18.93,-12.618 h -25.24 z m 233.51,-91.516 h 97.83 v 22.09 h -63.11 v 22.09 h 59.96 v 25.246 h -59.96 v 22.09 h 63.11 v 22.093 h -97.83 z m 249.3,37.867 c 0,-22.09 6.32,-41.019 53.65,-41.019 25.24,0 56.8,6.308 56.8,37.867 0,22.086 -15.77,28.398 -37.87,31.558 l -15.78,3.153 c -12.62,3.156 -22.08,6.312 -22.08,12.625 0,6.308 6.3,12.621 22.08,12.621 9.47,0 18.94,-3.156 18.94,-12.621 h 31.56 c 0,22.09 -12.62,34.711 -53.65,34.711 -25.24,0 -50.49,-9.469 -50.49,-37.871 0,-22.09 18.93,-28.395 37.86,-31.555 l 15.78,-3.156 c 12.63,-3.157 22.09,-6.313 22.09,-12.621 0,-6.313 -3.15,-12.625 -22.09,-12.625 -15.78,0 -22.08,3.156 -25.24,18.933 h -31.56"
         style="fill:#231f20;fill-opacity:1;fill-rule:evenodd;stroke:none"
         id="path26" />
    </g>
  </g>
</svg>
