<svg width="778" height="236" viewBox="0 0 778 236" fill="none" xmlns="http://www.w3.org/2000/svg">
<g clip-path="url(#clip0_7_23)">
<path d="M277.765 3.36462H3.47668V232.965H277.765V3.36462Z" fill="white"/>
<path d="M395.779 109.217H406.713C414.316 109.217 421.901 110.881 421.901 119.989C421.901 128.171 413.851 130.914 406.413 130.914H395.779V109.217ZM357.5 152.783H419.011C441.037 152.783 462.604 150.035 462.604 123.324C462.604 112.712 453.495 101.193 438.76 99.2163V98.9038C452.876 95.2684 460.626 87.5131 460.626 72.9653C460.626 52.7797 442.562 46.8802 424.191 46.8802H357.5V152.783ZM395.779 66.9128H406.847C414.138 66.9128 420.829 69.33 420.829 77.232C420.829 85.2489 413.079 87.3727 405.941 87.3727H395.773V66.9128H395.779Z" fill="black"/>
<path d="M524.427 120.435C524.427 127.266 520.46 134.556 512.575 134.556C506.637 134.556 503.613 132.419 503.613 126.966C503.613 118.79 512.729 118.018 520.619 118.018H524.434V120.435H524.427ZM477.785 98.5912C485.389 94.8092 495.091 91.9265 504.213 91.9265C513.8 91.9265 524.274 93.1383 524.427 103.311C520.932 102.992 514.859 102.239 509.526 102.239C490.53 102.239 468.677 107.106 468.677 131.373C468.677 147.917 482.965 154.601 497.675 154.601C508.474 154.601 518.214 150.347 523.509 141.386H523.821V152.79H559.345V104.682C559.345 75.8481 532.771 71.9002 510.898 71.9002C496.029 71.9002 489.178 73.2651 477.792 76.4476V98.5912H477.785Z" fill="black"/>
<path d="M570.131 73.7307H606.299V87.3727H606.605C611.153 76.3009 621.627 71.9002 632.427 71.9002C652.762 71.9002 660.2 82.5256 660.2 97.8323V152.777H621.934V107.246C621.934 102.692 621.934 96.4738 615.261 96.4738C608.411 96.4738 608.411 102.692 608.411 107.246V152.777H570.138V73.7307H570.131Z" fill="black"/>
<path d="M711.384 105.109H711.722L733.582 73.7179H776.843L750.122 108.604L777.928 152.783H733.282L711.722 114.389H711.384V152.783H673.124V38.9781H711.384V105.109Z" fill="black"/>
<path d="M0 236.154H280.667V0.175659H0V236.154ZM184.239 185.106H118.856V74.3557H151.701V165.513H183.276C205.079 165.513 214.245 151.265 214.245 114.733C214.245 77.9209 203.816 67.2317 181.707 67.2317H109.696V185.106H77.158V67.2317H29.4637V47.62H191.804C230.977 47.62 249.609 66.6194 249.609 114.44C249.609 177.382 221.81 185.106 184.239 185.106Z" fill="black"/>
</g>
<defs>
<clipPath id="clip0_7_23">
<rect width="778" height="236" fill="white"/>
</clipPath>
</defs>
</svg>
