<svg width="4096" height="3255" viewBox="0 0 4096 3255" fill="none" xmlns="http://www.w3.org/2000/svg">
<path d="M1009.17 3137C-604.827 3137 336.673 1124.33 1009.17 118H1536.67V515.5H1009.17C1681.67 1389.33 2623.17 3137 1009.17 3137Z" fill="black" stroke="black" stroke-width="236"/>
<path d="M1917.3 601.713H1759.17V3H1917.3V238.494H2126.14V3H2284.27V601.713H2126.14V376.198H1917.3V601.713Z" fill="black"/>
<path d="M2562.6 609.696C2520.54 609.696 2483 600.782 2449.99 582.954C2417.25 564.859 2391.42 540.246 2372.52 509.112C2353.89 477.713 2344.57 442.057 2344.57 402.142C2344.57 362.228 2353.89 326.704 2372.52 295.571C2391.42 264.172 2417.25 239.558 2449.99 221.73C2483 203.636 2520.54 194.588 2562.6 194.588C2604.39 194.588 2641.53 203.636 2674.01 221.73C2706.75 239.558 2732.44 264.172 2751.07 295.571C2769.71 326.704 2779.03 362.228 2779.03 402.142C2779.03 442.057 2769.71 477.713 2751.07 509.112C2732.44 540.246 2706.75 564.859 2674.01 582.954C2641.53 600.782 2604.39 609.696 2562.6 609.696ZM2561.8 477.979C2574.58 477.979 2585.89 474.786 2595.74 468.4C2605.86 461.748 2613.71 452.7 2619.3 441.258C2625.16 429.55 2628.09 416.245 2628.09 401.344C2628.09 386.975 2625.16 374.202 2619.3 363.026C2613.71 351.584 2605.86 342.67 2595.74 336.284C2585.89 329.631 2574.58 326.305 2561.8 326.305C2549.02 326.305 2537.57 329.631 2527.46 336.284C2517.61 342.67 2509.75 351.584 2503.9 363.026C2498.31 374.202 2495.51 386.975 2495.51 401.344C2495.51 416.245 2498.31 429.55 2503.9 441.258C2509.75 452.7 2517.61 461.748 2527.46 468.4C2537.57 474.786 2549.02 477.979 2561.8 477.979Z" fill="black"/>
<path d="M3245.83 601.713H3129.23L3124.44 538.25C3110.59 561.666 3092.22 579.495 3069.33 591.735C3046.44 603.709 3019.68 609.696 2989.07 609.696C2939.55 609.696 2900.82 594.263 2872.87 563.396C2844.91 532.529 2830.94 489.821 2830.94 435.271V202.571H2978.29V394.958C2978.29 421.567 2983.34 442.057 2993.46 456.426C3003.84 470.795 3018.48 477.979 3037.38 477.979C3056.82 477.979 3071.86 470.795 3082.51 456.426C3093.16 441.79 3098.48 421.301 3098.48 394.958V202.571H3245.83V601.713Z" fill="black"/>
<path d="M3298.14 567.786L3328.49 446.447C3335.67 454.962 3346.32 463.211 3360.43 471.194C3374.81 479.177 3390.38 485.696 3407.15 490.752C3423.92 495.542 3439.36 497.936 3453.47 497.936C3464.12 497.936 3472.24 496.34 3477.83 493.147C3483.42 489.954 3486.22 485.43 3486.22 479.576C3486.22 473.456 3483.55 468.267 3478.23 464.009C3472.91 459.486 3465.72 455.361 3456.67 451.636C3447.88 447.911 3437.77 444.052 3426.32 440.061C3409.28 433.941 3391.31 426.49 3372.41 417.709C3353.78 408.662 3337.94 396.421 3324.89 380.988C3311.85 365.288 3305.33 344.4 3305.33 318.322C3305.33 293.043 3311.98 271.224 3325.29 252.863C3338.87 234.236 3357.9 219.867 3382.39 209.756C3407.15 199.644 3436.17 194.588 3469.44 194.588C3525.08 194.588 3581.12 208.558 3637.56 236.498L3596.43 348.657C3587.91 341.207 3576.73 334.155 3562.88 327.503C3549.04 320.85 3534.8 315.395 3520.16 311.138C3505.78 306.88 3493.27 304.752 3482.62 304.752C3473.84 304.752 3467.18 306.348 3462.66 309.541C3458.4 312.468 3456.27 316.593 3456.27 321.915C3456.27 327.769 3458.8 332.958 3463.85 337.481C3469.18 341.739 3476.23 345.73 3485.02 349.456C3494.07 352.915 3503.92 356.64 3514.57 360.632C3532.4 366.752 3550.77 374.335 3569.67 383.383C3588.57 392.164 3604.55 404.404 3617.59 420.104C3630.9 435.537 3637.56 456.426 3637.56 482.769C3637.56 508.58 3630.37 531.065 3615.99 550.224C3601.88 569.117 3581.79 583.752 3555.7 594.13C3529.87 604.507 3499.26 609.696 3463.85 609.696C3404.76 609.696 3349.52 595.726 3298.14 567.786Z" fill="black"/>
<path d="M4069.22 559.804C4019.44 593.065 3965.4 609.696 3907.09 609.696C3862.11 609.696 3821.64 600.383 3785.7 581.756C3750.03 562.864 3721.68 537.185 3700.65 504.722C3679.88 472.258 3669.5 435.803 3669.5 395.357C3669.5 357.039 3678.82 322.846 3697.45 292.777C3716.09 262.443 3741.38 238.494 3773.32 220.932C3805.54 203.369 3841.87 194.588 3882.34 194.588C3924.66 194.588 3961.8 204.301 3993.75 223.726C4025.69 243.151 4050.58 270.159 4068.42 304.752C4086.25 339.344 4095.17 379.524 4095.17 425.293V438.065H3827.63C3832.42 448.443 3839.08 457.889 3847.6 466.404C3856.12 474.653 3866.76 481.306 3879.54 486.361C3892.32 491.417 3907.23 493.945 3924.27 493.945C3961.8 493.945 3997.34 481.971 4030.88 458.022L4069.22 559.804ZM3820.84 378.194H3960.2C3958.87 365.687 3955.01 354.644 3948.62 345.065C3942.5 335.486 3934.25 328.035 3923.87 322.713C3913.75 317.125 3902.44 314.331 3889.92 314.331C3877.15 314.331 3865.97 317.258 3856.38 323.112C3846.8 328.966 3838.95 336.683 3832.82 346.262C3826.97 355.842 3822.97 366.486 3820.84 378.194Z" fill="black"/>
<path d="M1917.3 1272.02H1759.17V673.304H1917.3V908.798H2126.14V673.304H2284.27V1272.02H2126.14V1046.5H1917.3V1272.02Z" fill="black"/>
<path d="M2562.6 1280C2520.54 1280 2483 1271.09 2449.99 1253.26C2417.25 1235.16 2391.42 1210.55 2372.52 1179.42C2353.89 1148.02 2344.57 1112.36 2344.57 1072.45C2344.57 1032.53 2353.89 997.008 2372.52 965.875C2391.42 934.476 2417.25 909.862 2449.99 892.034C2483 873.939 2520.54 864.892 2562.6 864.892C2604.39 864.892 2641.53 873.939 2674.01 892.034C2706.75 909.862 2732.44 934.476 2751.07 965.875C2769.71 997.008 2779.03 1032.53 2779.03 1072.45C2779.03 1112.36 2769.71 1148.02 2751.07 1179.42C2732.44 1210.55 2706.75 1235.16 2674.01 1253.26C2641.53 1271.09 2604.39 1280 2562.6 1280ZM2561.8 1148.28C2574.58 1148.28 2585.89 1145.09 2595.74 1138.7C2605.86 1132.05 2613.71 1123 2619.3 1111.56C2625.16 1099.85 2628.09 1086.55 2628.09 1071.65C2628.09 1057.28 2625.16 1044.51 2619.3 1033.33C2613.71 1021.89 2605.86 1012.97 2595.74 1006.59C2585.89 999.935 2574.58 996.609 2561.8 996.609C2549.02 996.609 2537.57 999.935 2527.46 1006.59C2517.61 1012.97 2509.75 1021.89 2503.9 1033.33C2498.31 1044.51 2495.51 1057.28 2495.51 1071.65C2495.51 1086.55 2498.31 1099.85 2503.9 1111.56C2509.75 1123 2517.61 1132.05 2527.46 1138.7C2537.57 1145.09 2549.02 1148.28 2561.8 1148.28Z" fill="black"/>
<path d="M2997.05 1272.02H2838.92V657.338H2997.05V1272.02Z" fill="black"/>
<path d="M3502.59 1272.02H3373.61L3366.02 1220.13C3350.05 1238.76 3330.88 1253.39 3308.52 1264.03C3286.42 1274.68 3262.33 1280 3236.24 1280C3201.64 1280 3170.76 1271.09 3143.6 1253.26C3116.72 1235.16 3095.55 1210.55 3080.11 1179.42C3064.67 1148.02 3056.95 1112.36 3056.95 1072.45C3056.95 1032.53 3064.67 997.008 3080.11 965.875C3095.55 934.476 3116.72 909.862 3143.6 892.034C3170.76 873.939 3201.64 864.892 3236.24 864.892C3259.67 864.892 3281.5 869.149 3301.73 877.665C3321.96 885.913 3339.8 897.622 3355.24 912.789V673.304H3502.59V1272.02ZM3281.77 1148.28C3295.34 1148.28 3307.59 1145.36 3318.5 1139.5C3329.68 1133.65 3338.6 1125.53 3345.26 1115.15C3351.91 1104.78 3355.24 1092.8 3355.24 1079.23V1064.46C3355.24 1051.16 3351.91 1039.45 3345.26 1029.34C3338.6 1019.23 3329.68 1011.24 3318.5 1005.39C3307.59 999.536 3295.34 996.609 3281.77 996.609C3267.66 996.609 3255.01 999.935 3243.83 1006.59C3232.65 1012.97 3223.86 1021.89 3217.48 1033.33C3211.09 1044.77 3207.89 1057.81 3207.89 1072.45C3207.89 1087.08 3211.09 1100.12 3217.48 1111.56C3223.86 1123 3232.65 1132.05 3243.83 1138.7C3255.01 1145.09 3267.66 1148.28 3281.77 1148.28Z" fill="black"/>
</svg>
