<svg width="4096" height="3255" viewBox="0 0 4096 3255" fill="none" xmlns="http://www.w3.org/2000/svg">
<path d="M1010 3137C-604 3137 337.5 1124.33 1010 118H1537.5V515.5H1010C1682.5 1389.33 2624 3137 1010 3137Z" fill="white" stroke="white" stroke-width="236"/>
<path d="M1918.13 601.713H1760V3H1918.13V238.494H2126.97V3H2285.1V601.713H2126.97V376.198H1918.13V601.713Z" fill="white"/>
<path d="M2563.42 609.696C2521.36 609.696 2483.83 600.782 2450.82 582.954C2418.07 564.859 2392.25 540.246 2373.35 509.112C2354.72 477.713 2345.4 442.057 2345.4 402.142C2345.4 362.228 2354.72 326.704 2373.35 295.571C2392.25 264.172 2418.07 239.558 2450.82 221.73C2483.83 203.636 2521.36 194.588 2563.42 194.588C2605.22 194.588 2642.36 203.636 2674.83 221.73C2707.58 239.558 2733.27 264.172 2751.9 295.571C2770.54 326.704 2779.85 362.228 2779.85 402.142C2779.85 442.057 2770.54 477.713 2751.9 509.112C2733.27 540.246 2707.58 564.859 2674.83 582.954C2642.36 600.782 2605.22 609.696 2563.42 609.696ZM2562.63 477.979C2575.4 477.979 2586.72 474.786 2596.57 468.4C2606.68 461.748 2614.54 452.7 2620.13 441.258C2625.98 429.55 2628.91 416.245 2628.91 401.344C2628.91 386.975 2625.98 374.202 2620.13 363.026C2614.54 351.584 2606.68 342.67 2596.57 336.284C2586.72 329.631 2575.4 326.305 2562.63 326.305C2549.85 326.305 2538.4 329.631 2528.28 336.284C2518.43 342.67 2510.58 351.584 2504.72 363.026C2499.13 374.202 2496.34 386.975 2496.34 401.344C2496.34 416.245 2499.13 429.55 2504.72 441.258C2510.58 452.7 2518.43 461.748 2528.28 468.4C2538.4 474.786 2549.85 477.979 2562.63 477.979Z" fill="white"/>
<path d="M3246.65 601.713H3130.05L3125.26 538.25C3111.42 561.666 3093.05 579.495 3070.16 591.735C3047.26 603.709 3020.51 609.696 2989.89 609.696C2940.38 609.696 2901.65 594.263 2873.69 563.396C2845.74 532.529 2831.76 489.821 2831.76 435.271V202.571H2979.11V394.958C2979.11 421.567 2984.17 442.057 2994.29 456.426C3004.67 470.795 3019.31 477.979 3038.21 477.979C3057.64 477.979 3072.69 470.795 3083.33 456.426C3093.98 441.79 3099.31 421.301 3099.31 394.958V202.571H3246.65V601.713Z" fill="white"/>
<path d="M3298.96 567.786L3329.31 446.447C3336.5 454.962 3347.15 463.211 3361.26 471.194C3375.63 479.177 3391.21 485.696 3407.98 490.752C3424.75 495.542 3440.19 497.936 3454.3 497.936C3464.95 497.936 3473.07 496.34 3478.66 493.147C3484.25 489.954 3487.04 485.43 3487.04 479.576C3487.04 473.456 3484.38 468.267 3479.06 464.009C3473.73 459.486 3466.54 455.361 3457.49 451.636C3448.71 447.911 3438.59 444.052 3427.15 440.061C3410.11 433.941 3392.14 426.49 3373.24 417.709C3354.6 408.662 3338.76 396.421 3325.72 380.988C3312.67 365.288 3306.15 344.4 3306.15 318.322C3306.15 293.043 3312.81 271.224 3326.12 252.863C3339.7 234.236 3358.73 219.867 3383.22 209.756C3407.98 199.644 3437 194.588 3470.27 194.588C3525.91 194.588 3581.95 208.558 3638.38 236.498L3597.25 348.657C3588.74 341.207 3577.55 334.155 3563.71 327.503C3549.87 320.85 3535.63 315.395 3520.98 311.138C3506.61 306.88 3494.1 304.752 3483.45 304.752C3474.66 304.752 3468.01 306.348 3463.48 309.541C3459.22 312.468 3457.09 316.593 3457.09 321.915C3457.09 327.769 3459.62 332.958 3464.68 337.481C3470.01 341.739 3477.06 345.73 3485.84 349.456C3494.9 352.915 3504.75 356.64 3515.39 360.632C3533.23 366.752 3551.6 374.335 3570.5 383.383C3589.4 392.164 3605.37 404.404 3618.42 420.104C3631.73 435.537 3638.38 456.426 3638.38 482.769C3638.38 508.58 3631.2 531.065 3616.82 550.224C3602.71 569.117 3582.61 583.752 3556.52 594.13C3530.7 604.507 3500.09 609.696 3464.68 609.696C3405.58 609.696 3350.34 595.726 3298.96 567.786Z" fill="white"/>
<path d="M4070.04 559.804C4020.26 593.065 3966.22 609.696 3907.92 609.696C3862.93 609.696 3822.47 600.383 3786.53 581.756C3750.86 562.864 3722.51 537.185 3701.48 504.722C3680.71 472.258 3670.33 435.803 3670.33 395.357C3670.33 357.039 3679.65 322.846 3698.28 292.777C3716.92 262.443 3742.21 238.494 3774.15 220.932C3806.36 203.369 3842.7 194.588 3883.16 194.588C3925.49 194.588 3962.63 204.301 3994.57 223.726C4026.52 243.151 4051.41 270.159 4069.25 304.752C4087.08 339.344 4096 379.524 4096 425.293V438.065H3828.46C3833.25 448.443 3839.91 457.889 3848.42 466.404C3856.94 474.653 3867.59 481.306 3880.37 486.361C3893.15 491.417 3908.06 493.945 3925.09 493.945C3962.63 493.945 3998.17 481.971 4031.71 458.022L4070.04 559.804ZM3821.67 378.194H3961.03C3959.7 365.687 3955.84 354.644 3949.45 345.065C3943.33 335.486 3935.08 328.035 3924.69 322.713C3914.58 317.125 3903.26 314.331 3890.75 314.331C3877.97 314.331 3866.79 317.258 3857.21 323.112C3847.63 328.966 3839.77 336.683 3833.65 346.262C3827.79 355.842 3823.8 366.486 3821.67 378.194Z" fill="white"/>
<path d="M1918.13 1272.02H1760V673.304H1918.13V908.798H2126.97V673.304H2285.1V1272.02H2126.97V1046.5H1918.13V1272.02Z" fill="white"/>
<path d="M2563.42 1280C2521.36 1280 2483.83 1271.09 2450.82 1253.26C2418.07 1235.16 2392.25 1210.55 2373.35 1179.42C2354.72 1148.02 2345.4 1112.36 2345.4 1072.45C2345.4 1032.53 2354.72 997.008 2373.35 965.875C2392.25 934.476 2418.07 909.862 2450.82 892.034C2483.83 873.939 2521.36 864.892 2563.42 864.892C2605.22 864.892 2642.36 873.939 2674.83 892.034C2707.58 909.862 2733.27 934.476 2751.9 965.875C2770.54 997.008 2779.85 1032.53 2779.85 1072.45C2779.85 1112.36 2770.54 1148.02 2751.9 1179.42C2733.27 1210.55 2707.58 1235.16 2674.83 1253.26C2642.36 1271.09 2605.22 1280 2563.42 1280ZM2562.63 1148.28C2575.4 1148.28 2586.72 1145.09 2596.57 1138.7C2606.68 1132.05 2614.54 1123 2620.13 1111.56C2625.98 1099.85 2628.91 1086.55 2628.91 1071.65C2628.91 1057.28 2625.98 1044.51 2620.13 1033.33C2614.54 1021.89 2606.68 1012.97 2596.57 1006.59C2586.72 999.935 2575.4 996.609 2562.63 996.609C2549.85 996.609 2538.4 999.935 2528.28 1006.59C2518.43 1012.97 2510.58 1021.89 2504.72 1033.33C2499.13 1044.51 2496.34 1057.28 2496.34 1071.65C2496.34 1086.55 2499.13 1099.85 2504.72 1111.56C2510.58 1123 2518.43 1132.05 2528.28 1138.7C2538.4 1145.09 2549.85 1148.28 2562.63 1148.28Z" fill="white"/>
<path d="M2997.88 1272.02H2839.75V657.338H2997.88V1272.02Z" fill="white"/>
<path d="M3503.41 1272.02H3374.44L3366.85 1220.13C3350.88 1238.76 3331.71 1253.39 3309.35 1264.03C3287.25 1274.68 3263.16 1280 3237.07 1280C3202.46 1280 3171.58 1271.09 3144.43 1253.26C3117.54 1235.16 3096.38 1210.55 3080.94 1179.42C3065.5 1148.02 3057.78 1112.36 3057.78 1072.45C3057.78 1032.53 3065.5 997.008 3080.94 965.875C3096.38 934.476 3117.54 909.862 3144.43 892.034C3171.58 873.939 3202.46 864.892 3237.07 864.892C3260.5 864.892 3282.33 869.149 3302.56 877.665C3322.79 885.913 3340.63 897.622 3356.07 912.789V673.304H3503.41V1272.02ZM3282.59 1148.28C3296.17 1148.28 3308.42 1145.36 3319.33 1139.5C3330.51 1133.65 3339.43 1125.53 3346.08 1115.15C3352.74 1104.78 3356.07 1092.8 3356.07 1079.23V1064.46C3356.07 1051.16 3352.74 1039.45 3346.08 1029.34C3339.43 1019.23 3330.51 1011.24 3319.33 1005.39C3308.42 999.536 3296.17 996.609 3282.59 996.609C3268.48 996.609 3255.84 999.935 3244.66 1006.59C3233.48 1012.97 3224.69 1021.89 3218.3 1033.33C3211.91 1044.77 3208.72 1057.81 3208.72 1072.45C3208.72 1087.08 3211.91 1100.12 3218.3 1111.56C3224.69 1123 3233.48 1132.05 3244.66 1138.7C3255.84 1145.09 3268.48 1148.28 3282.59 1148.28Z" fill="white"/>
</svg>
